<svg width="512" height="512" viewBox="0 0 512 512" fill="none" xmlns="http://www.w3.org/2000/svg">
<rect width="512" height="512" fill="#1B114D"/>
<circle cx="256" cy="256" r="128" fill="white" stroke="url(#paint0_linear_13:3)" stroke-width="256"/>
<path d="M208.862 203.989C212.36 207.013 217.69 206.679 220.768 203.243L236.768 185.374L249.583 200.913C251.108 202.762 253.366 203.878 255.786 203.976C258.202 204.077 260.55 203.148 262.226 201.43L278.204 185.051L290.917 201.046C293.784 204.654 299.085 205.295 302.757 202.477C306.428 199.659 307.08 194.449 304.212 190.841L285.504 167.302C283.997 165.407 281.727 164.248 279.283 164.126C279.14 164.119 278.998 164.115 278.856 164.115C276.563 164.115 274.362 165.033 272.768 166.668L256.668 183.173L243.587 167.312C242.023 165.415 239.688 164.293 237.205 164.243C234.719 164.181 232.342 165.223 230.702 167.055L208.104 192.291C205.025 195.727 205.366 200.965 208.862 203.989Z" fill="white"/>
<path d="M346.341 275.434C364.548 253.921 392.064 221.41 392.064 182.328C392.064 145.291 378.742 110.896 354.552 85.4815C329.834 59.5087 295.769 45.2054 258.637 45.2054C221.146 45.2054 186.258 58.8767 160.4 83.7007C134.347 108.711 120 142.673 120 179.33C120 210.052 141.359 237.347 158.521 259.278C167.065 270.197 175.135 280.509 178.498 288.659C187.708 310.907 174.448 337.196 174.322 337.441C173.377 339.258 173.152 341.314 173.598 343.247V382.645C173.598 387.394 177.515 391.244 182.348 391.244H186.527V423.939C186.527 428.688 190.444 432.538 195.277 432.538H201.742H215.618V449.351C215.618 454.1 219.536 457.95 224.368 457.95H292.246C297.078 457.95 300.996 454.1 300.996 449.351V432.538H318.105C322.938 432.538 326.855 428.688 326.855 423.939V391.244H331.034C335.866 391.244 339.784 387.394 339.784 382.645V341.7C339.79 341.583 339.803 341.468 339.803 341.351C339.803 339.842 339.408 338.426 338.714 337.195C334.252 327.782 325.552 302.009 335.624 288.542C338.431 284.779 342.097 280.448 346.341 275.434ZM283.497 440.752H233.119V432.538H283.497V440.752ZM309.357 415.34H295.48H292.248H224.37H204.029V391.244H309.357V415.34ZM322.285 374.046H318.106H195.278H191.099V349.949H322.285V374.046ZM321.516 278.367C309.132 294.926 313.715 318.503 318.328 332.753H288.3V281.386L336.84 196.537C339.209 192.398 337.712 187.155 333.5 184.827C329.29 182.501 323.958 183.968 321.59 188.109L271.92 274.921C271.184 276.208 270.8 277.659 270.8 279.135V332.753H242.816V279.135C242.816 277.662 242.431 276.214 241.698 274.929L190.41 185.064C188.045 180.922 182.713 179.447 178.498 181.771C174.283 184.094 172.783 189.334 175.147 193.476L225.316 281.381V332.752H194.896C198.813 320.425 202.425 300.814 194.713 282.185C190.459 271.879 181.684 260.665 172.394 248.793C156.039 227.893 137.501 204.203 137.501 179.329C137.501 113.763 190.71 62.4022 258.638 62.4022C324.726 62.4022 374.565 113.958 374.565 182.327C374.565 215.193 350.476 243.654 332.887 264.436C328.642 269.45 324.634 274.187 321.516 278.367Z" fill="white"/>
<defs>
<linearGradient id="paint0_linear_13:3" x1="256" y1="0" x2="256" y2="512" gradientUnits="userSpaceOnUse">
<stop stop-color="#1B114D" stop-opacity="0.74"/>
<stop offset="0.125" stop-color="#1D1657" stop-opacity="0.74"/>
<stop offset="0.229167" stop-color="#3341AE" stop-opacity="0.74"/>
<stop offset="0.333333" stop-color="#3B52D0" stop-opacity="0.74"/>
<stop offset="0.489583" stop-color="#3564D5" stop-opacity="0.74"/>
<stop offset="0.630208" stop-color="#2592E1" stop-opacity="0.74"/>
<stop offset="0.817708" stop-color="#0CDBF5" stop-opacity="0.74"/>
<stop offset="1" stop-color="#00FFFF" stop-opacity="0.74"/>
</linearGradient>
</defs>
</svg>
